<svg width="234" height="290" viewBox="0 0 234 290" fill="none" xmlns="http://www.w3.org/2000/svg">
<path d="M91.5 0H232.5V90C237.7 142.8 222 173.667 213.5 182.5C201.913 206.283 173.32 222.086 151.375 230.397C139.721 234.809 127.206 236 114.745 236H80V182.5H133.5C159.522 182.5 176.427 162.707 185.051 146.115C189.401 137.745 190.5 128.206 190.5 118.774V43H115.5C80 43 50.8333 70.1667 48.5 90H115.5V143.5H48.5C40.5 151.5 40.5 167 40.5 182.5V236L0 289.5V90C7.2 22.8 64 2 91.5 0Z" fill="#FFFFFF"/>
</svg>
